<?xml version="1.0" encoding="UTF-8"?>
<!DOCTYPE svg PUBLIC "-//W3C//DTD SVG 1.1//EN" "http://www.w3.org/Graphics/SVG/1.1/DTD/svg11.dtd">
<!-- Creator: CorelDRAW X7 -->
<svg xmlns="http://www.w3.org/2000/svg" xml:space="preserve" width="27.94cm" height="21.59cm" version="1.1" style="shape-rendering:geometricPrecision; text-rendering:geometricPrecision; image-rendering:optimizeQuality; fill-rule:evenodd; clip-rule:evenodd"
viewBox="0 0 27940 21590"
 xmlns:xlink="http://www.w3.org/1999/xlink">
 <defs>
  <style type="text/css">
   <![CDATA[
    .fil4 {fill:#FEFEFE}
    .fil0 {fill:#FEFEFE}
    .fil1 {fill:#201E1E}
    .fil3 {fill:#98288F}
    .fil2 {fill:url(#id0)}
   ]]>
  </style>
  <linearGradient id="id0" gradientUnits="userSpaceOnUse" x1="10783.7" y1="11207" x2="17185.5" y2="5292.95">
   <stop offset="0" style="stop-opacity:1; stop-color:#5E5B5B"/>
   <stop offset="1" style="stop-opacity:1; stop-color:#D4D4D3"/>
  </linearGradient>
 </defs>
 <g id="Layer_x0020_1">
  <metadata id="CorelCorpID_0Corel-Layer"/>
  <polygon class="fil0" points="0,0 27940,0 27940,21590 0,21590 "/>
  <path class="fil1" d="M8977 16367c0,-237 -193,-429 -430,-429 -237,0 -431,192 -431,429 0,238 194,428 431,428 236,0 430,-190 430,-428zm-152 0c0,155 -121,286 -278,286 -156,0 -278,-131 -278,-286 0,-154 121,-286 278,-286 157,0 278,132 278,286zm540 -83l0 -143c-3,-1 -7,-1 -11,-1 -65,0 -96,26 -135,76l0 -55 -135 0 0 618 148 0 0 -347c0,-93 38,-144 133,-148zm666 293l-166 0c-31,51 -77,87 -138,87 -110,0 -185,-87 -185,-194 0,-105 69,-194 179,-194 71,0 110,31 144,90l166 0c-14,-46 -25,-72 -56,-107 -65,-76 -155,-119 -254,-119 -180,0 -327,147 -327,327 0,181 147,333 329,333 60,0 126,-20 177,-52 68,-42 104,-96 131,-171zm637 202l0 -349c0,-53 -2,-110 -26,-158 -38,-78 -127,-132 -214,-132 -62,0 -113,21 -159,63l0 -249 -149 0 0 825 149 0 0 -314c0,-87 17,-189 125,-189 110,0 126,99 126,188l0 315 148 0zm753 0l0 -618 -136 0 0 78c-47,-61 -131,-99 -208,-99 -183,0 -309,148 -309,326 0,176 114,334 300,334 75,0 169,-40 217,-97l0 76 136 0zm-140 -312c0,107 -70,197 -182,197 -105,0 -183,-88 -183,-190 0,-105 73,-198 183,-198 109,0 182,85 182,191zm557 -183l0 -143c-3,-1 -7,-1 -11,-1 -65,0 -96,26 -134,76l0 -55 -136 0 0 618 148 0 0 -347c0,-93 38,-144 133,-148zm682 495l0 -825 -149 0 0 262c-49,-46 -125,-76 -193,-76 -178,0 -310,159 -310,331 0,168 130,329 304,329 78,0 162,-37 212,-97l0 76 136 0zm-139 -309c0,101 -77,194 -182,194 -107,0 -183,-95 -183,-198 0,-97 82,-190 182,-190 105,0 183,91 183,194zm1271 -516l-160 0 -222 627 -223 -627 -160 0 321 825 125 0 319 -825zm209 136l0 -136 -149 0 0 136 149 0zm0 689l0 -618 -149 0 0 618 149 0zm531 -195c0,-139 -105,-164 -214,-199 -29,-10 -63,-20 -63,-57 0,-31 27,-52 57,-52 33,0 53,22 58,53l146 0c-5,-109 -95,-189 -203,-189 -107,0 -206,79 -206,191 0,52 17,96 55,131 38,35 70,42 117,59 38,13 105,29 105,80 0,37 -31,63 -67,63 -51,0 -70,-35 -82,-79l-150 0c3,37 7,67 24,100 37,72 116,115 197,115 120,0 226,-93 226,-216zm649 195l0 -618 -148 0 0 316c0,87 -24,187 -129,187 -105,0 -126,-101 -126,-187l0 -316 -148 0 0 362c0,84 12,151 76,210 50,45 113,67 178,67 76,0 115,-25 161,-83l0 62 136 0zm756 0l0 -618 -136 0 0 78c-47,-61 -131,-99 -207,-99 -183,0 -309,148 -309,326 0,176 113,334 300,334 74,0 168,-40 216,-97l0 76 136 0zm-139 -312c0,107 -71,197 -182,197 -105,0 -183,-88 -183,-190 0,-105 73,-198 183,-198 109,0 182,85 182,191zm424 312l0 -825 -149 0 0 825 149 0zm932 -251c0,-69 -25,-125 -75,-173 -40,-40 -89,-57 -141,-75 -37,-14 -108,-36 -129,-73 -7,-13 -9,-28 -9,-42 0,-52 35,-84 85,-84 56,0 87,39 91,92l158 0c-8,-133 -110,-235 -245,-235 -130,0 -241,104 -241,235 0,62 26,123 69,167 92,93 284,73 284,209 0,64 -49,104 -111,104 -67,0 -111,-43 -112,-110l-160 0c7,148 123,252 269,252 148,0 267,-119 267,-267zm374 -231l0 -136 -89 0 0 -207 -148 0 0 207 -73 0 0 136 73 0 0 482 148 0 0 -482 89 0zm637 482l0 -618 -149 0 0 316c0,87 -23,187 -128,187 -105,0 -126,-101 -126,-187l0 -316 -149 0 0 362c0,84 13,151 77,210 49,45 112,67 178,67 75,0 115,-25 161,-83l0 62 136 0zm755 0l0 -825 -149 0 0 262c-49,-46 -124,-76 -192,-76 -178,0 -311,159 -311,331 0,168 130,329 304,329 78,0 162,-37 212,-97l0 76 136 0zm-139 -309c0,101 -76,194 -181,194 -108,0 -183,-95 -183,-198 0,-97 81,-190 181,-190 105,0 183,91 183,194zm422 -380l0 -136 -149 0 0 136 149 0zm0 689l0 -618 -149 0 0 618 149 0zm761 -309c0,-181 -145,-330 -326,-330 -182,0 -331,147 -331,330 0,180 148,330 328,330 183,0 329,-147 329,-330zm-148 2c0,102 -74,192 -179,192 -108,0 -182,-90 -182,-194 0,-100 78,-194 182,-194 105,0 179,96 179,196z"/>
  <path class="fil1" d="M10860 17734l0 -91 -266 0 0 -251 266 0 0 -91 -266 0 0 -212 266 0 0 -93 -370 0 0 738 370 0zm894 0l-163 -299 145 -273 -103 0 -97 194 -98 -194 -102 0 143 273 -161 299 112 0 106 -213 105 213 113 0zm673 -486l0 -86 -85 0 0 -138 -97 0 0 138 -70 0 0 86 70 0 0 486 97 0 0 -486 85 0zm854 286l-98 0c-9,58 -30,123 -99,123 -90,0 -106,-110 -109,-178l306 0 0 -31c0,-131 -34,-304 -197,-304 -163,0 -205,173 -205,305 0,128 43,296 201,296 122,0 190,-98 201,-211zm-98 -140l-207 0c3,-65 21,-162 104,-162 83,0 102,97 103,162zm986 339l0 -384c0,-41 0,-74 -19,-111 -30,-59 -85,-87 -150,-87 -61,0 -103,20 -132,76l0 -65 -91 0 0 572 98 0 0 -332c0,-77 13,-162 108,-162 54,0 74,24 83,76 5,29 6,57 6,85l0 332 97 0zm866 -166c0,-210 -261,-144 -261,-260 0,-42 30,-67 71,-67 53,0 80,36 84,86l93 0c-4,-106 -71,-175 -178,-175 -102,0 -169,70 -169,171 0,198 260,126 260,257 0,50 -37,78 -84,78 -58,0 -90,-37 -97,-92l-92 0c8,117 75,180 193,180 109,0 180,-69 180,-178zm588 -460l0 -125 -97 0 0 125 97 0zm0 627l0 -572 -97 0 0 572 97 0zm943 -285c0,-141 -55,-298 -220,-298 -166,0 -221,156 -221,297 0,144 51,297 221,297 168,0 220,-153 220,-296zm-101 4c0,80 -14,204 -119,204 -108,0 -121,-125 -121,-206 0,-81 13,-211 121,-211 108,0 119,133 119,213zm992 280l0 -384c0,-41 0,-74 -18,-111 -30,-59 -86,-87 -151,-87 -61,0 -103,20 -131,76l0 -65 -91 0 0 572 97 0 0 -332c0,-77 13,-162 109,-162 54,0 74,24 83,76 4,29 5,57 5,85l0 332 97 0z"/>
  <path class="fil1" d="M9243 15573l0 -394 -695 0 0 -1890 -424 0 0 2284 1119 0zm2454 -1140c0,-657 -534,-1188 -1191,-1188 -657,0 -1195,531 -1195,1188 0,657 538,1184 1195,1184 654,0 1191,-527 1191,-1184zm-421 0c0,428 -335,791 -770,791 -431,0 -770,-363 -770,-791 0,-428 335,-794 770,-794 435,0 770,366 770,794zm3122 1140l0 -2284 -585 0 -606 1729 -609 -1729 -586 0 0 2284 425 0 0 -1712 589 1712 359 0 592 -1712 0 1712 421 0zm1904 -678c0,-277 -130,-469 -391,-568 172,-100 254,-236 254,-435 0,-161 -76,-322 -195,-428 -195,-175 -456,-175 -702,-175l-452 0 0 2284 609 0c154,0 343,-17 483,-79 243,-106 394,-332 394,-599zm-558 -962c0,212 -192,247 -367,247l-136 0 0 -493 174 0c161,0 329,58 329,246zm133 948c0,243 -222,298 -424,298l-212 0 0 -606 222 0c202,0 414,72 414,308zm1161 692l0 -2284 -425 0 0 2284 425 0zm2786 44l0 -383c-123,0 -198,0 -315,-58 195,-247 274,-435 274,-753 0,-665 -572,-1178 -1222,-1178 -664,0 -1208,510 -1208,1181 0,678 551,1191 1222,1191 219,0 472,-58 654,-185 174,124 318,185 534,185l61 0zm-465 -1184c0,209 -55,349 -189,510 -65,-62 -133,-110 -208,-158 -278,-178 -521,-284 -853,-284 -113,0 -222,11 -328,41 -4,-41 -4,-78 -4,-119 0,-425 370,-784 791,-784 438,0 791,356 791,794zm-490 712c-103,65 -181,79 -301,79 -277,0 -493,-127 -650,-350 65,-17 130,-30 198,-30 281,0 534,140 753,301z"/>
  <path class="fil2" d="M13985 3845c2433,0 4405,1972 4405,4405 0,2433 -1972,4405 -4405,4405 -2433,0 -4406,-1972 -4406,-4405 0,-2433 1973,-4405 4406,-4405zm0 199c2323,0 4206,1883 4206,4206 0,2323 -1883,4206 -4206,4206 -2323,0 -4206,-1883 -4206,-4206 0,-2323 1883,-4206 4206,-4206z"/>
  <path class="fil3" d="M13985 4043c2323,0 4207,1883 4207,4207 0,2324 -1884,4207 -4207,4207 -2324,0 -4208,-1883 -4208,-4207 0,-2324 1884,-4207 4208,-4207z"/>
  <path class="fil4" d="M13985 5685c443,0 860,112 1224,310l19 -54 1403 0 -408 1055c208,371 327,799 327,1254 0,1133 -735,2094 -1753,2434l-287 740 -1035 0 -287 -735c-1027,-335 -1769,-1300 -1769,-2439 0,-456 119,-885 328,-1256l-410 -1053 1412 0 18 51c362,-196 777,-307 1218,-307zm2365 449l-986 0 -1376 3875 -1375 -3875 -994 0 1987 5098 772 0 1972 -5098z"/>
 </g>
</svg>
