<?xml version="1.0" encoding="UTF-8"?>
<!DOCTYPE svg PUBLIC "-//W3C//DTD SVG 1.1//EN" "http://www.w3.org/Graphics/SVG/1.1/DTD/svg11.dtd">
<!-- Creator: CorelDRAW X7 -->
<svg xmlns="http://www.w3.org/2000/svg" xml:space="preserve" width="27.94cm" height="21.59cm" version="1.1" style="shape-rendering:geometricPrecision; text-rendering:geometricPrecision; image-rendering:optimizeQuality; fill-rule:evenodd; clip-rule:evenodd"
viewBox="0 0 27940 21590"
 xmlns:xlink="http://www.w3.org/1999/xlink">
 <defs>
  <style type="text/css">
   <![CDATA[
    .fil3 {fill:#FEFEFE}
    .fil0 {fill:#FEFEFE}
    .fil6 {fill:#A9ABAE}
    .fil5 {fill:#533A6B}
    .fil2 {fill:#98288F}
    .fil10 {fill:url(#id0)}
    .fil11 {fill:url(#id1)}
    .fil7 {fill:url(#id2)}
    .fil1 {fill:url(#id3)}
    .fil9 {fill:url(#id4)}
    .fil4 {fill:url(#id5)}
    .fil8 {fill:url(#id6)}
   ]]>
  </style>
  <linearGradient id="id0" gradientUnits="userSpaceOnUse" x1="11863.7" y1="16239.7" x2="16076.3" y2="12391.6">
   <stop offset="0" style="stop-opacity:1; stop-color:#9C288C"/>
   <stop offset="1" style="stop-opacity:1; stop-color:#FE3234"/>
  </linearGradient>
  <linearGradient id="id1" gradientUnits="userSpaceOnUse" x1="18957.9" y1="16299.7" x2="23064.6" y2="12331.5">
   <stop offset="0" style="stop-opacity:1; stop-color:#98288F"/>
   <stop offset="0.678431" style="stop-opacity:1; stop-color:#4C60B4"/>
   <stop offset="1" style="stop-opacity:1; stop-color:#0098DA"/>
  </linearGradient>
  <linearGradient id="id2" gradientUnits="objectBoundingBox" x1="13.6708%" y1="83.5612%" x2="86.3292%" y2="16.4388%">
   <stop offset="0" style="stop-opacity:1; stop-color:#5E5B5B"/>
   <stop offset="1" style="stop-opacity:1; stop-color:#D4D4D3"/>
  </linearGradient>
  <linearGradient id="id3" gradientUnits="objectBoundingBox" xlink:href="#id2" x1="13.6708%" y1="83.5612%" x2="86.3292%" y2="16.4388%">
  </linearGradient>
  <linearGradient id="id4" gradientUnits="userSpaceOnUse" xlink:href="#id2" x1="11775.3" y1="16343.1" x2="16164.7" y2="12288.1">
  </linearGradient>
  <linearGradient id="id5" gradientUnits="userSpaceOnUse" xlink:href="#id2" x1="11775.3" y1="9301.88" x2="16164.7" y2="5246.85">
  </linearGradient>
  <linearGradient id="id6" gradientUnits="userSpaceOnUse" x1="4822.41" y1="16239.7" x2="9035.07" y2="12391.6">
   <stop offset="0" style="stop-opacity:1; stop-color:#DA251D"/>
   <stop offset="0.501961" style="stop-opacity:1; stop-color:#6D5C7D"/>
   <stop offset="0.541176" style="stop-opacity:1; stop-color:#00923F"/>
   <stop offset="1" style="stop-opacity:1; stop-color:#0093DD"/>
  </linearGradient>
 </defs>
 <g id="Layer_x0020_1">
  <metadata id="CorelCorpID_0Corel-Layer"/>
  <polygon class="fil0" points="0,0 27940,0 27940,21590 0,21590 "/>
  <path class="fil1" d="M6929 4254c1668,0 3020,1352 3020,3020 0,1669 -1352,3021 -3020,3021 -1668,0 -3021,-1352 -3021,-3021 0,-1668 1353,-3020 3021,-3020zm0 136c1593,0 2884,1292 2884,2884 0,1593 -1291,2884 -2884,2884 -1593,0 -2884,-1291 -2884,-2884 0,-1592 1291,-2884 2884,-2884z"/>
  <path class="fil2" d="M6929 4390c1593,0 2884,1291 2884,2884 0,1594 -1291,2885 -2884,2885 -1593,0 -2885,-1291 -2885,-2885 0,-1593 1292,-2884 2885,-2884z"/>
  <path class="fil3" d="M6929 5515c304,0 590,77 839,213l13 -37 963 0 -280 724c142,254 224,547 224,859 0,777 -504,1436 -1202,1669l-197 508 -710 0 -197 -504c-704,-230 -1212,-892 -1212,-1673 0,-313 82,-606 225,-861l-282 -722 968 0 13 35c248,-134 533,-211 835,-211zm1622 308l-676 0 -944 2657 -943 -2657 -681 0 1362 3496 530 0 1352 -3496z"/>
  <path class="fil4" d="M13970 4254c1668,0 3021,1352 3021,3020 0,1669 -1353,3021 -3021,3021 -1668,0 -3021,-1352 -3021,-3021 0,-1668 1353,-3020 3021,-3020zm0 136c1593,0 2884,1292 2884,2884 0,1593 -1291,2884 -2884,2884 -1593,0 -2884,-1291 -2884,-2884 0,-1592 1291,-2884 2884,-2884z"/>
  <path class="fil5" d="M13970 4390c1593,0 2885,1291 2885,2884 0,1594 -1292,2885 -2885,2885 -1593,0 -2885,-1291 -2885,-2885 0,-1593 1292,-2884 2885,-2884z"/>
  <path class="fil3" d="M13970 5515c304,0 590,77 839,213l14 -37 962 0 -280 724c143,254 224,547 224,859 0,777 -504,1436 -1202,1669l-197 508 -710 0 -196 -504c-704,-230 -1213,-892 -1213,-1673 0,-313 82,-606 225,-861l-281 -722 968 0 12 35c248,-134 533,-211 835,-211zm1622 308l-676 0 -943 2657 -944 -2657 -681 0 1363 3496 529 0 1352 -3496z"/>
  <path class="fil1" d="M21011 4254c1668,0 3021,1352 3021,3020 0,1669 -1353,3021 -3021,3021 -1668,0 -3020,-1352 -3020,-3021 0,-1668 1352,-3020 3020,-3020zm0 136c1593,0 2884,1292 2884,2884 0,1593 -1291,2884 -2884,2884 -1593,0 -2884,-1291 -2884,-2884 0,-1592 1291,-2884 2884,-2884z"/>
  <path class="fil6" d="M21011 4390c1593,0 2885,1291 2885,2884 0,1594 -1292,2885 -2885,2885 -1593,0 -2884,-1291 -2884,-2885 0,-1593 1291,-2884 2884,-2884z"/>
  <path class="fil3" d="M21011 5515c304,0 590,77 840,213l13 -37 962 0 -280 724c143,254 224,547 224,859 0,777 -503,1436 -1202,1669l-196 508 -710 0 -197 -504c-704,-230 -1213,-892 -1213,-1673 0,-313 82,-606 225,-861l-281 -722 968 0 12 35c249,-134 533,-211 835,-211zm1622 308l-676 0 -943 2657 -944 -2657 -681 0 1363 3496 529 0 1352 -3496z"/>
  <path class="fil7" d="M6929 11295c1668,0 3020,1352 3020,3021 0,1668 -1352,3020 -3020,3020 -1668,0 -3021,-1352 -3021,-3020 0,-1669 1353,-3021 3021,-3021zm0 137c1593,0 2884,1291 2884,2884 0,1592 -1291,2884 -2884,2884 -1593,0 -2884,-1292 -2884,-2884 0,-1593 1291,-2884 2884,-2884z"/>
  <path class="fil8" d="M6929 11431c1593,0 2884,1291 2884,2885 0,1593 -1291,2884 -2884,2884 -1593,0 -2885,-1291 -2885,-2884 0,-1594 1292,-2885 2885,-2885z"/>
  <path class="fil3" d="M6929 12557c304,0 590,77 839,212l13 -37 963 0 -280 724c142,254 224,547 224,860 0,777 -504,1436 -1202,1669l-197 507 -710 0 -197 -504c-704,-230 -1212,-892 -1212,-1672 0,-313 82,-607 225,-862l-282 -722 968 0 13 35c248,-134 533,-210 835,-210zm1622 307l-676 0 -944 2658 -943 -2658 -681 0 1362 3496 530 0 1352 -3496z"/>
  <path class="fil9" d="M13970 11295c1668,0 3021,1352 3021,3021 0,1668 -1353,3020 -3021,3020 -1668,0 -3021,-1352 -3021,-3020 0,-1669 1353,-3021 3021,-3021zm0 137c1593,0 2884,1291 2884,2884 0,1592 -1291,2884 -2884,2884 -1593,0 -2884,-1292 -2884,-2884 0,-1593 1291,-2884 2884,-2884z"/>
  <path class="fil10" d="M13970 11431c1593,0 2885,1291 2885,2885 0,1593 -1292,2884 -2885,2884 -1593,0 -2885,-1291 -2885,-2884 0,-1594 1292,-2885 2885,-2885z"/>
  <path class="fil3" d="M13970 12557c304,0 590,77 839,212l14 -37 962 0 -280 724c143,254 224,547 224,860 0,777 -504,1436 -1202,1669l-197 507 -710 0 -196 -504c-704,-230 -1213,-892 -1213,-1672 0,-313 82,-607 225,-862l-281 -722 968 0 12 35c248,-134 533,-210 835,-210zm1622 307l-676 0 -943 2658 -944 -2658 -681 0 1363 3496 529 0 1352 -3496z"/>
  <path class="fil7" d="M21011 11295c1668,0 3021,1352 3021,3021 0,1668 -1353,3020 -3021,3020 -1668,0 -3020,-1352 -3020,-3020 0,-1669 1352,-3021 3020,-3021zm0 137c1593,0 2884,1291 2884,2884 0,1592 -1291,2884 -2884,2884 -1593,0 -2884,-1292 -2884,-2884 0,-1593 1291,-2884 2884,-2884z"/>
  <path class="fil11" d="M21011 11431c1593,0 2885,1291 2885,2885 0,1593 -1292,2884 -2885,2884 -1593,0 -2884,-1291 -2884,-2884 0,-1594 1291,-2885 2884,-2885z"/>
  <path class="fil3" d="M21011 12557c304,0 590,77 840,212l13 -37 962 0 -280 724c143,254 224,547 224,860 0,777 -503,1436 -1202,1669l-196 507 -710 0 -197 -504c-704,-230 -1213,-892 -1213,-1672 0,-313 82,-607 225,-862l-281 -722 968 0 12 35c249,-134 533,-210 835,-210zm1622 307l-676 0 -943 2658 -944 -2658 -681 0 1363 3496 529 0 1352 -3496z"/>
 </g>
</svg>
